<svg height="58" viewBox="0 0 65.812035 58.000001" width="65.812" xmlns="http://www.w3.org/2000/svg"><g fill="#a29d86" stroke="#ccc" stroke-linejoin="bevel" stroke-width=".214"><path d="m18.93 18.826 9.323 3.394v10.957l-9.323-3.394z" fill="#e9e9ff"/><path d="m9.47 22.27v10.957l9.46-3.444v-10.957z" fill="#353564"/><path d="m9.47 33.227 9.322 3.393 9.46-3.443-9.322-3.394z" fill="#afafde"/><path d="m9.47 22.27 9.322 3.393 9.46-3.443-9.322-3.394z" fill="#f7f7f4"/><path d="m18.792 25.663v10.957l9.46-3.443v-10.957z" fill="#fff"/><path d="m9.47 22.27 9.322 3.393v10.957l-9.322-3.393z" fill="#efeeea"/><path d="m28.293 11.166 9.323 3.393v10.957l-9.323-3.393z" fill="#e9e9ff"/><path d="m18.833 14.609v10.957l9.46-3.443v-10.957z" fill="#353564"/><path d="m18.833 25.566 9.322 3.393 9.461-3.443-9.323-3.393z" fill="#afafde"/><path d="m18.833 14.609 9.322 3.393 9.461-3.443-9.323-3.393z" fill="#f7f7f4"/><path d="m28.155 18.002v10.958l9.461-3.443v-10.958z" fill="#fff"/><path d="m18.833 14.609 9.322 3.393v10.958l-9.322-3.393z" fill="#efeeea"/><path d="m9.567 33.297 9.322 3.393v10.957l-9.322-3.393z" fill="#e9e9ff"/><path d="m.106 36.74v10.957l9.46-3.443v-10.957z" fill="#353564"/><path d="m.106 47.697 9.324 3.393 9.46-3.443-9.322-3.393z" fill="#afafde"/><path d="m.106 36.74 9.323 3.393 9.46-3.443-9.322-3.393z" fill="#f7f7f4"/><path d="m9.429 40.133v10.957l9.46-3.443v-10.957z" fill="#fff"/><path d="m.106 36.74 9.323 3.393v10.957l-9.323-3.393z" fill="#efeeea"/></g><g fill="#a29d86" stroke="#ccc" stroke-linejoin="bevel" stroke-width=".214"><path d="m18.93 36.702 9.323 3.393v10.957l-9.323-3.393z" fill="#e9e9ff"/><path d="m9.47 40.145v10.957l9.46-3.443v-10.957z" fill="#353564"/><path d="m9.47 51.102 9.322 3.393 9.46-3.443-9.322-3.393z" fill="#afafde"/><path d="m9.47 40.145 9.322 3.393 9.46-3.443-9.322-3.393z" fill="#f7f7f4"/><path d="m18.792 43.538v10.957l9.46-3.443v-10.957z" fill="#fff"/><path d="m9.47 40.145 9.322 3.393v10.957l-9.322-3.393z" fill="#efeeea"/></g><g fill="#a29d86" stroke="#ccc" stroke-linejoin="bevel" stroke-width=".214"><path d="m18.93 25.636 9.323 3.393v10.957l-9.323-3.393z" fill="#e9e9ff"/><path d="m9.47 29.08v10.956l9.46-3.443v-10.957z" fill="#353564"/><path d="m9.47 40.036 9.322 3.394 9.46-3.444-9.322-3.393z" fill="#afafde"/><path d="m9.47 29.08 9.322 3.393 9.46-3.444-9.322-3.393z" fill="#f7f7f4"/><path d="m18.792 32.473v10.957l9.46-3.444v-10.956z" fill="#fff"/><path d="m9.47 29.08 9.322 3.393v10.957l-9.322-3.394z" fill="#efeeea"/></g><g fill="#a29d86" stroke="#ccc" stroke-linejoin="bevel" stroke-width=".214"><path d="m56.383 29.892 9.323 3.393v10.957l-9.323-3.393z" fill="#e9e9ff"/><path d="m46.923 33.335v10.957l9.46-3.443v-10.957z" fill="#353564"/><path d="m46.923 44.292 9.322 3.394 9.46-3.444-9.322-3.393z" fill="#afafde"/><path d="m46.923 33.335 9.322 3.394 9.46-3.444-9.322-3.393z" fill="#f7f7f4"/><path d="m56.245 36.729v10.957l9.46-3.444v-10.957z" fill="#fff"/><path d="m46.923 33.335 9.322 3.394v10.957l-9.322-3.394z" fill="#efeeea"/></g><g transform="matrix(.65177 0 0 .65177 -1683.66 -513.275)"><g fill="#a29d86" stroke="#ccc" stroke-linejoin="bevel" stroke-width=".328"><path d="m2655.349 838.594 14.303 5.206v16.811l-14.303-5.206z" fill="#e9e9ff"/><path d="m2640.834 843.877v16.811l14.515-5.283v-16.81z" fill="#353564"/><path d="m2640.834 860.688 14.303 5.206 14.515-5.283-14.303-5.206z" fill="#afafde"/><path d="m2640.834 843.877 14.303 5.206 14.515-5.283-14.303-5.206z" fill="#f7f7f4"/><path d="m2655.137 849.083v16.811l14.515-5.283v-16.81z" fill="#ffd242"/><path d="m2640.834 843.877 14.303 5.206v16.811l-14.303-5.206z" fill="#efeeea"/></g><circle cx="2835.218" cy="1823.899" fill="#fff" r="2.967" transform="matrix(.9397 -.34202283 0 1 0 0)"/></g><g fill="#a29d86" stroke="#ccc" stroke-linejoin="bevel" stroke-width=".214"><g><path d="m37.657 36.702 9.322 3.393v10.957l-9.322-3.393z" fill="#e9e9ff"/><path d="m28.196 40.145v10.957l9.46-3.443v-10.957z" fill="#353564"/><path d="m28.196 51.102 9.323 3.393 9.46-3.443-9.322-3.393z" fill="#afafde"/><path d="m28.196 40.145 9.323 3.393 9.46-3.443-9.322-3.393z" fill="#f7f7f4"/><path d="m37.519 43.538v10.957l9.46-3.443v-10.957z" fill="#ffd242"/><path d="m28.196 40.145 9.323 3.393v10.957l-9.323-3.393z" fill="#efeeea"/></g><g><path d="m28.293 40.107 9.323 3.393v10.957l-9.323-3.393z" fill="#e9e9ff"/><path d="m18.833 43.55v10.957l9.46-3.443v-10.957z" fill="#353564"/><path d="m18.833 54.507 9.322 3.393 9.46-3.443-9.322-3.393z" fill="#afafde"/><path d="m18.833 43.55 9.322 3.393 9.46-3.443-9.322-3.393z" fill="#f7f7f4"/><path d="m28.155 46.943v10.957l9.46-3.443v-10.957z" fill="#fff"/><path d="m18.833 43.55 9.322 3.393v10.957l-9.322-3.393z" fill="#efeeea"/></g><g><path d="m56.383 18.826 9.323 3.394v10.957l-9.323-3.394z" fill="#e9e9ff"/><path d="m46.923 22.27v10.957l9.46-3.444v-10.957z" fill="#353564"/><path d="m46.923 33.227 9.322 3.393 9.46-3.443-9.322-3.394z" fill="#afafde"/><path d="m46.923 22.27 9.322 3.393 9.46-3.443-9.322-3.394z" fill="#f7f7f4"/><path d="m56.245 25.663v10.957l9.46-3.443v-10.957z" fill="#ffd242"/><path d="m46.923 22.27 9.322 3.393v10.957l-9.322-3.393z" fill="#efeeea"/></g><g><path d="m56.383 7.76 9.323 3.394v10.956l-9.323-3.393z" fill="#e9e9ff"/><path d="m46.923 11.204v10.957l9.46-3.443v-10.958z" fill="#353564"/><path d="m46.923 22.161 9.322 3.393 9.46-3.443-9.322-3.393z" fill="#afafde"/><path d="m46.923 11.204 9.322 3.393 9.46-3.443-9.322-3.393z" fill="#ffc91d"/><path d="m56.245 14.597v10.957l9.46-3.443v-10.957z" fill="#ffd242"/><path d="m46.923 11.204 9.322 3.393v10.957l-9.322-3.393z" fill="#efeeea"/></g><g><path d="m47.02 22.231 9.322 3.393v10.957l-9.322-3.393z" fill="#e9e9ff"/><path d="m37.56 25.675v10.957l9.46-3.444v-10.957z" fill="#353564"/><path d="m37.56 36.632 9.322 3.393 9.46-3.444-9.322-3.393z" fill="#afafde"/><path d="m37.56 25.675 9.322 3.393 9.46-3.444-9.322-3.393z" fill="#f7f7f4"/><path d="m46.882 29.068v10.957l9.46-3.444v-10.957z" fill="#ffd242"/><path d="m37.56 25.675 9.322 3.393v10.957l-9.323-3.393z" fill="#efeeea"/></g><g><path d="m47.02 11.166 9.322 3.393v10.957l-9.322-3.393z" fill="#e9e9ff"/><path d="m37.56 14.609v10.957l9.46-3.443v-10.957z" fill="#353564"/><path d="m37.56 25.566 9.322 3.393 9.46-3.443-9.322-3.393z" fill="#afafde"/><path d="m37.56 14.609 9.322 3.393 9.46-3.443-9.322-3.393z" fill="#f7f7f4"/><path d="m46.882 18.002v10.958l9.46-3.443v-10.958z" fill="#3775a9"/><path d="m37.56 14.609 9.322 3.393v10.958l-9.323-3.393z" fill="#efeeea"/></g><g><path d="m47.02.1 9.322 3.393v10.957l-9.322-3.393z" fill="#e9e9ff"/><path d="m37.56 3.543v10.957l9.46-3.443v-10.957z" fill="#353564"/><path d="m37.56 14.5 9.322 3.393 9.46-3.443-9.322-3.393z" fill="#afafde"/><path d="m37.56 3.543 9.322 3.393 9.46-3.443-9.322-3.393z" fill="#2f6491"/><path d="m46.882 6.936v10.957l9.46-3.443v-10.957z" fill="#3775a9"/><path d="m37.56 3.543 9.322 3.393v10.957l-9.323-3.393z" fill="#efeeea"/></g><g><path d="m37.657 25.636 9.322 3.393v10.957l-9.322-3.393z" fill="#e9e9ff"/><path d="m28.196 29.08v10.956l9.46-3.443v-10.957z" fill="#353564"/><path d="m28.196 40.036 9.323 3.394 9.46-3.444-9.322-3.393z" fill="#afafde"/><path d="m28.196 29.08 9.323 3.393 9.46-3.444-9.322-3.393z" fill="#f7f7f4"/><path d="m37.519 32.473v10.957l9.46-3.444v-10.956z" fill="#ffd242"/><path d="m28.196 29.08 9.323 3.393v10.957l-9.323-3.394z" fill="#efeeea"/></g><g><path d="m37.657 14.57 9.322 3.394v10.956l-9.322-3.394z" fill="#e9e9ff"/><path d="m28.196 18.014v10.956l9.46-3.444v-10.956z" fill="#353564"/><path d="m28.196 28.97 9.323 3.394 9.46-3.443-9.322-3.394z" fill="#afafde"/><path d="m28.196 18.014 9.323 3.393 9.46-3.443-9.322-3.394z" fill="#f7f7f4"/><path d="m37.519 21.407v10.957l9.46-3.443v-10.957z" fill="#3775a9"/><path d="m28.196 18.014 9.323 3.393v10.957l-9.323-3.393z" fill="#efeeea"/></g><g><path d="m28.293 29.04 9.323 3.394v10.957l-9.323-3.393z" fill="#e9e9ff"/><path d="m18.833 32.484v10.957l9.46-3.443v-10.958z" fill="#353564"/><path d="m18.833 43.441 9.322 3.393 9.46-3.443-9.322-3.393z" fill="#afafde"/><path d="m18.833 32.484 9.322 3.393 9.46-3.443-9.322-3.393z" fill="#f7f7f4"/><path d="m28.155 35.877v10.957l9.46-3.443v-10.957z" fill="#3775a9"/><path d="m18.833 32.484 9.322 3.393v10.957l-9.322-3.393z" fill="#2f6491"/></g><g><path d="m28.293 17.975 9.323 3.393v10.957l-9.323-3.393z" fill="#e9e9ff"/><path d="m18.833 21.419v10.957l9.46-3.444v-10.957z" fill="#353564"/><path d="m18.833 32.376 9.322 3.393 9.46-3.444-9.322-3.393z" fill="#afafde"/><path d="m18.833 21.419 9.322 3.393 9.46-3.444-9.322-3.393z" fill="#2f6491"/><path d="m28.155 24.812v10.957l9.46-3.444v-10.957z" fill="#3775a9"/><path d="m18.833 21.419 9.322 3.393v10.957l-9.322-3.393z" fill="#2f6491"/></g></g><g transform="matrix(.65177 0 0 .65177 -1683.66 -513.275)"><g fill="#a29d86" stroke="#ccc" stroke-linejoin="bevel" stroke-width=".328"><path d="m2640.983 792.885 14.304 5.206v16.811l-14.304-5.206z" fill="#e9e9ff"/><path d="m2626.468 798.168v16.811l14.515-5.283v-16.811z" fill="#353564"/><path d="m2626.468 814.979 14.304 5.206 14.515-5.283-14.304-5.206z" fill="#afafde"/><path d="m2626.468 798.168 14.304 5.206 14.515-5.283-14.304-5.206z" fill="#2f6491"/><path d="m2640.772 803.374v16.811l14.515-5.283v-16.811z" fill="#3775a9"/><path d="m2626.468 798.168 14.304 5.206v16.811l-14.304-5.206z" fill="#2f6491"/></g><circle cx="2816.017" cy="1772.922" fill="#fff" r="2.967" transform="matrix(.9397 -.34202283 0 1 0 0)"/></g></svg>